# AST/ASF file generated using VICON BodyLanguage
# -----------------------------------------------
:version 1.10
:name VICON
:units
  mass 1.0
  length 0.45
  angle deg
:documentation
   .ast/.asf automatically generated from VICON data using
   VICON BodyBuilder and BodyLanguage model FoxedUp or BRILLIANT.MOD
:root
   order TX TY TZ RX RY RZ
   axis XYZ
   position 0 0 0  
   orientation 0 0 0 
:bonedata
  begin
     id 1 
     name lhipjoint
     direction 0.558404 -0.748506 0.357664 
     length 2.4234 
     axis 0 0 0  XYZ
  end
  begin
     id 2 
     name lfemur
     direction 0.34202 -0.939693 0  
     length 7.14567  
     axis 0 0 20  XYZ
    dof rx ry rz
    limits (-160.0 20.0)
           (-70.0 70.0)
           (-60.0 70.0)
  end
  begin
     id 3 
     name ltibia
     direction 0.34202 -0.939693 0   
     length 8.13956   
     axis 0 0 20   XYZ
    dof rx
    limits (-10.0 170.0)
  end
  begin
     id 4 
     name lfoot
     direction 0.0791314 -0.217412 0.972867   
     length 2.00134   
     axis -90 7.62852e-016 20   XYZ
    dof rx rz
    limits (-45.0 90.0)
           (-70.0 20.0)
  end
  begin
     id 5 
     name ltoes
     direction 1.53547e-011 -4.21922e-011 1   
     length 1.00735   
     axis -90 7.62852e-016 20   XYZ
    dof rx
    limits (-90.0 20.0)
  end
  begin
     id 6 
     name rhipjoint
     direction -0.496392 -0.78327 0.374276   
     length 2.31584  
     axis 0 0 0  XYZ 
  end
  begin
     id 7 
     name rfemur
     direction -0.34202 -0.939693 0   
     length 7.47417   
     axis 0 0 -20   XYZ
    dof rx ry rz
    limits (-160.0 20.0)
           (-70.0 70.0)
           (-70.0 60.0)
  end
  begin
     id 8 
     name rtibia
     direction -0.34202 -0.939693 0   
     length 7.69071   
     axis 0 0 -20   XYZ
    dof rx
    limits (-10.0 170.0)
 end
 begin
     id 9 
     name rfoot
     direction -0.103069 -0.28318 0.953512   
     length 2.16135  
     axis -90 -7.62852e-016 -20   XYZ
    dof rx rz
    limits (-45.0 90.0)
           (-20.0 70.0)
  end
  begin
     id 10 
     name rtoes
     direction -1.53581e-011 -4.21904e-011 1   
     length 1.07867   
     axis -90 -7.62852e-016 -20   XYZ
    dof rx
    limits (-90.0 20.0)
  end
  begin
     id 11 
     name lowerback
     direction -0.0258961 0.994776 -0.0987407   
     length 2.19412   
     axis 0 0 0   XYZ
    dof rx ry rz
    limits (-20.0 45.0)
           (-30.0 30.0)
           (-30.0 30.0)
  end
  begin
     id 12 
     name upperback
     direction 0.0402454 0.999185 0.00320666   
     length 2.18445   
     axis 0 0 0   XYZ
    dof rx ry rz
    limits (-20.0 45.0)
           (-30.0 30.0)
           (-30.0 30.0)
  end
  begin
     id 13 
     name thorax
     direction 0.0519376 0.997415 0.0496558   
     length 2.21487   
     axis 0 0 0   XYZ
    dof rx ry rz
    limits (-20.0 45.0)
           (-30.0 30.0)
           (-30.0 30.0)
  end
  begin
     id 14 
     name lowerneck
     direction -0.0921276 0.983211 0.157506   
     length 1.61201   
     axis 0 0 0   XYZ
    dof rx ry rz
    limits (-20.0 45.0)
           (-30.0 30.0)
           (-30.0 30.0)
  end
  begin
     id 15 
     name upperneck
     direction 0.0820814 0.98162 -0.172292   
     length 1.65275   
     axis 0 0 0   XYZ
    dof rx ry rz
    limits (-20.0 45.0)
           (-30.0 30.0)
           (-30.0 30.0)
  end
  begin
     id 16
     name head
     direction 0.0336554 0.996413 -0.0776455  
     length 1.66415  
     axis 0 0 0   XYZ
    dof rx ry rz
    limits (-20.0 45.0)
           (-30.0 30.0)
           (-30.0 30.0)
  end
  begin
     id 17 
     name lclavicle
     direction 0.94696 0.284418 -0.149576  
     length 3.41447  
     axis 0 0 0   XYZ
    dof ry rz
    limits (-20.0 10.0)
           (0.0 20.0)
  end
  begin
     id 18 
     name lhumerus
     direction 1 -0.000130264 -9.81312e-005   
     length 5.19964   
     axis 180 -30 -90   XYZ
    dof rx ry rz
    limits (-60.0 90.0)
           (-90.0 90.0)
           (-90.0 90.0)
  end
  begin
     id 19
     name lradius
     direction 1 -4.48961e-011 1.43854e-026   
     length 3.32189   
     axis 180 -30 -90   XYZ
    dof rx
    limits (-10.0 170.0)
  end
  begin
     id 20
     name lwrist
     direction 1 -4.48958e-011 3.1502e-026   
     length 1.66095   
     axis -1.97692e-014 90 90   XYZ
    dof ry
    limits (-180.0 0.0)
 end
  begin
     id 21 
     name lhand
     direction 1 -4.48927e-011 6.3004e-026   
     length 0.645616   
     axis -4.02019e-014 90 90   XYZ
    dof rx rz
    limits (-90.0 90.0)
           (-45.0 45.0)
  end
  begin
     id 22 
     name lfingers
     direction 1 -4.4904e-011 1.26008e-025   
     length 0.520512   
     axis -8.04039e-014 90 90   XYZ
    dof rx
    limits (0.0 90.0)
  end
  begin
     id 23
     name lthumb
     direction 0.707107 -6.34947e-011 0.707107   
     length 0.747354   
     axis -90 45 2.85299e-015   XYZ
    dof rx rz
    limits (-45.0 45.0)
           (-45.0 45.0)
  end
  begin
     id 24 
     name rclavicle
     direction -0.909391 0.383475 -0.161107   
     length 3.25176  
     axis 0 0 0   XYZ 
    dof ry rz
    limits (-10.0 20.0)
           (-20.0 0.0)
  end
  begin
     id 25 
     name rhumerus
     direction -1 -4.48965e-011 -1.81384e-027  
     length 5.6595   
     axis 180 30 90   XYZ
    dof rx ry rz
    limits (-90.0 60.0)
           (-90.0 90.0)
           (-90.0 90.0)
  end
  begin
     id 26 
     name rradius
     direction -1 -4.48996e-011 -8.09397e-027   
     length 3.37604   
     axis 180 30 90   XYZ
    dof rx
    limits (-10.0 170.0)
  end
  begin
     id 27 
     name rwrist
     direction -1 -4.48927e-011 -1.56669e-026   
     length 1.68802   
     axis 1.21142e-014 -90 -90   XYZ
    dof ry
    limits (-180.0 0.0)
  end
  begin
     id 28
     name rhand
     direction -1 -4.48912e-011 -3.13339e-026   
     length 0.824702   
     axis 1.99937e-014 -90 -90   XYZ
    dof rx rz
    limits (-90.0 90.0)
           (-45.0 45.0)
  end
  begin
     id 29
     name rfingers
     direction -1 -4.49011e-011 -6.26677e-026   
     length 0.664896   
     axis 3.99874e-014 -90 -90   XYZ
    dof rx
    limits (0.0 90.0)
  end
  begin
     id 30
     name rthumb
     direction -0.707107 -6.34931e-011 0.707107   
     length 0.954662   
     axis -90 -45 -2.85299e-015   XYZ
    dof rx rz
    limits (-45.0 45.0)
           (-45.0 45.0)
  end
:hierarchy
  begin
    root lhipjoint rhipjoint lowerback
    lhipjoint lfemur
    lfemur ltibia
    ltibia lfoot
    lfoot ltoes
    rhipjoint rfemur
    rfemur rtibia
    rtibia rfoot
    rfoot rtoes
    lowerback upperback
    upperback thorax
    thorax lowerneck lclavicle rclavicle
    lowerneck upperneck
    upperneck head
    lclavicle lhumerus
    lhumerus lradius
    lradius lwrist
    lwrist lhand lthumb
    lhand lfingers
    rclavicle rhumerus
    rhumerus rradius
    rradius rwrist
    rwrist rhand rthumb
    rhand rfingers
  end

#!OML:ASF F:\VICON\USERDATA\INSTALL\rory3\rory3.ASF
:FULLY-SPECIFIED
:DEGREES
476
root 10.3586 17.7622 -13.9395 11.7288 -47.4875 -4.1718
lowerback 7.81722 -2.4248 -6.98858
upperback 2.2358 -3.72953 3.07492
thorax -1.39057 -1.90079 7.47948
lowerneck -9.72475 0.356519 -11.4524
upperneck 26.4187 -1.14259 13.4739
head 10.0183 -0.351846 6.69931
rclavicle 3.26007e-014 -7.15625e-015
rhumerus -38.3064 -23.2639 -68.7068
rradius 32.7087
rwrist -13.5141
rhand -11.1332 17.4993
rfingers 7.12502
rthumb 14.8922 -11.9455
lclavicle 3.26007e-014 -7.15625e-015
lhumerus -6.62355 18.0085 83.5408
lradius 27.0008
lwrist -8.40482
lhand -3.56953 32.3559
lfingers 7.12502
lthumb 22.1673 61.105
rfemur -32.5423 3.17037 11.9404
rtibia 43.7799
rfoot -10.8239 -0.416514
rtoes 8.33439
lfemur -18.8283 4.92697 -23.0754
ltibia 36.6652
lfoot -25.8249 17.1833
ltoes 9.1814
477
root 10.3361 17.7594 -13.9077 11.9954 -47.4806 -4.44166
lowerback 7.93257 -2.35714 -6.93486
upperback 2.19577 -3.64077 3.21625
thorax -1.50624 -1.85081 7.60288
lowerneck -9.36619 0.286382 -12.1427
upperneck 26.1555 -1.26472 14.0441
head 9.87004 -0.425012 7.0064
rclavicle 6.85807e-014 -2.84262e-014
rhumerus -38.2975 -23.0154 -68.6196
rradius 32.9997
rwrist -13.6955
rhand -10.8782 17.4463
rfingers 7.12502
rthumb 15.1379 -11.98
lclavicle 6.85807e-014 -2.84262e-014
lhumerus -6.38325 18.1997 83.829
lradius 26.9126
lwrist -8.4934
lhand -3.9286 32.2385
lfingers 7.12502
lthumb 21.8225 61.0281
rfemur -32.6932 3.06926 12.158
rtibia 44.1641
rfoot -10.7851 -0.410261
rtoes 8.47028
lfemur -18.7599 4.81088 -22.9025
ltibia 36.6458
lfoot -25.9728 17.2822
ltoes 9.55701
478
root 10.3111 17.7545 -13.8697 12.0956 -47.4686 -4.38632
lowerback 7.87491 -2.38576 -7.03597
upperback 2.15919 -3.68275 3.24912
thorax -1.49571 -1.87122 7.69682
lowerneck -9.28296 0.259953 -12.1578
upperneck 26.12 -1.27849 13.9399
head 9.84389 -0.445539 6.96438
rclavicle -4.96962e-014 4.59193e-014
rhumerus -38.1792 -22.7515 -68.7915
rradius 33.2786
rwrist -14.1617
rhand -11.4172 17.0285
rfingers 7.12502
rthumb 14.6186 -12.4362
lclavicle -4.96962e-014 4.59193e-014
lhumerus -6.35703 18.5663 83.9348
lradius 26.9658
lwrist -8.55169
lhand -4.42532 31.897
lfingers 7.12502
lthumb 21.3455 60.7413
rfemur -32.8632 2.85527 12.0939
rtibia 44.5466
rfoot -10.8205 -0.202939
rtoes 10.0826
lfemur -18.7326 5.13698 -23.0007
ltibia 36.6253
lfoot -25.9611 17.1528
ltoes 8.93849
479
root 10.2866 17.7479 -13.8383 11.8836 -47.3124 -3.91661
lowerback 7.78014 -2.47202 -7.28393
upperback 2.20971 -3.81213 3.10805
thorax -1.35921 -1.94328 7.68843
lowerneck -9.54874 0.231738 -11.6945
upperneck 26.1904 -1.29432 13.5806
head 9.9252 -0.436265 6.75197
rclavicle -5.70512e-014 1.98785e-015
rhumerus -37.8892 -22.4188 -69.3098
rradius 33.5668
rwrist -14.8788
rhand -12.039 16.8269
rfingers 7.12502
rthumb 14.0194 -12.6803
lclavicle -5.70512e-014 1.98785e-015
lhumerus -6.18856 18.6573 83.9409
lradius 27.029
lwrist -8.43527
lhand -4.54062 31.8899
lfingers 7.12502
lthumb 21.2347 60.7468
rfemur -33.0353 2.42799 11.7939
rtibia 44.929
rfoot -10.8617 -0.0691806
rtoes 10.9175
lfemur -18.716 5.47717 -23.3546
ltibia 36.5971
lfoot -25.9417 16.8495
ltoes 7.97261
480
root 10.2604 17.7428 -13.8069 11.8852 -47.1757 -3.799
lowerback 7.72524 -2.46224 -7.25769
upperback 2.30826 -3.79402 3.00157
thorax -1.23845 -1.94257 7.55074
lowerneck -9.52792 0.132993 -11.8642
upperneck 25.9685 -1.48134 13.9715
head 9.86979 -0.496605 6.89947
rclavicle 8.07066e-014 -3.75703e-014
rhumerus -37.6663 -22.3559 -69.7181
rradius 33.8859
rwrist -15.3783
rhand -12.5082 16.7932
rfingers 7.12502
rthumb 13.5672 -12.7448
lclavicle 8.07066e-014 -3.75703e-014
lhumerus -5.82467 18.6975 84.0811
lradius 27.0589
lwrist -8.70742
lhand -4.32851 32.0711
lfingers 7.12502
lthumb 21.4385 60.9049
rfemur -33.159 2.05626 11.7752
rtibia 45.3017
rfoot -10.858 0.00480271
rtoes 10.5286
lfemur -18.6387 5.54694 -23.4349
ltibia 36.55
lfoot -26.0095 16.72
ltoes 7.38076
481
root 10.2331 17.7405 -13.7697 12.1696 -47.1322 -4.04744
lowerback 7.71187 -2.39249 -7.06612
upperback 2.3185 -3.68544 3.0087
thorax -1.25281 -1.88736 7.44036
lowerneck -10.1709 0.0080519 -11.0142
upperneck 26.4259 -1.60821 13.1961
head 10.1818 -0.536886 6.47739
rclavicle 5.60573e-014 -2.127e-014
rhumerus -37.6039 -22.5046 -69.8419
rradius 34.0907
rwrist -15.5905
rhand -12.792 16.892
rfingers 7.12502
rthumb 13.2937 -12.6641
lclavicle 5.60573e-014 -2.127e-014
lhumerus -5.67698 18.8465 84.2605
lradius 27.1841
lwrist -9.3516
lhand -4.078 32.1704
lfingers 7.12502
lthumb 21.6791 60.9766
rfemur -33.2737 1.97716 11.9444
rtibia 45.6516
rfoot -10.9025 0.0856685
rtoes 10.6314
lfemur -18.5419 5.44912 -23.275
ltibia 36.4832
lfoot -26.1588 16.8151
ltoes 7.10491
482
root 10.2045 17.7381 -13.7322 12.252 -46.9682 -4.11751
lowerback 7.82366 -2.35019 -7.00539
upperback 2.29635 -3.63184 2.98925
thorax -1.35312 -1.85472 7.38916
lowerneck -10.1117 -0.0746762 -10.8476
upperneck 26.4249 -1.78446 13.2461
head 10.195 -0.599066 6.44659
rclavicle 1.0953e-013 -2.127e-014
rhumerus -37.6433 -22.6404 -69.9006
rradius 34.28
rwrist -15.5861
rhand -12.9117 17.0048
rfingers 7.12502
rthumb 13.1783 -12.5587
lclavicle 1.0953e-013 -2.127e-014
lhumerus -5.62447 18.661 84.3389
lradius 27.2625
lwrist -9.49075
lhand -4.04605 32.382
lfingers 7.12502
lthumb 21.7097 61.1847
rfemur -33.2651 1.86047 11.9783
rtibia 45.9933
rfoot -11.0102 0.182543
rtoes 11.2491
lfemur -18.3963 5.18491 -23.2169
ltibia 36.5009
lfoot -26.3953 16.8998
ltoes 7.21891
483
root 10.173 17.7365 -13.6911 12.3192 -46.7808 -4.19515
lowerback 7.90393 -2.36702 -6.92327
upperback 2.30851 -3.65299 2.9781
thorax -1.38752 -1.86397 7.33617
lowerneck -9.84786 -0.137798 -10.8728
upperneck 26.1486 -1.92492 13.4558
head 10.0633 -0.649999 6.49567
rclavicle -1.11319e-013 2.18663e-014
rhumerus -37.6462 -22.8236 -69.9298
rradius 34.5097
rwrist -15.364
rhand -13.187 16.9756
rfingers 7.12502
rthumb 12.913 -12.6049
lclavicle -1.11319e-013 2.18663e-014
lhumerus -5.45157 18.9162 84.3381
lradius 27.2841
lwrist -9.64265
lhand -3.95891 32.394
lfingers 7.12502
lthumb 21.7934 61.187
rfemur -33.1893 1.62518 12.0445
rtibia 46.3127
rfoot -11.1337 0.256381
rtoes 10.7471
lfemur -18.194 4.91387 -23.1476
ltibia 36.5053
lfoot -26.6515 16.9658
ltoes 7.54325
484
root 10.1511 17.7338 -13.6946 12.8874 -46.5185 -4.58868
lowerback 8.20494 -2.4416 -7.01478
upperback 2.13276 -3.77588 3.1979
thorax -1.69461 -1.90683 7.6588
lowerneck -9.45644 -0.0770931 -11.1
upperneck 25.8395 -1.83349 13.5882
head 9.86155 -0.625217 6.57181
rclavicle 4.32357e-014 7.95139e-016
rhumerus -37.4734 -22.1459 -70.1446
rradius 34.7875
rwrist -15.9441
rhand -13.5785 16.8453
rfingers 7.12502
rthumb 12.5355 -12.7586
lclavicle 4.32357e-014 7.95139e-016
lhumerus -5.32148 19.6305 84.3459
lradius 27.2579
lwrist -9.94418
lhand -3.84185 32.2578
lfingers 7.12502
lthumb 21.9058 61.0376
rfemur -33.6765 1.91217 12.4399
rtibia 46.6603
rfoot -11.066 -0.442701
rtoes 9.50438
lfemur -18.5772 4.61569 -22.7178
ltibia 36.5402
lfoot -26.5972 16.997
ltoes 8.60844
485
root 10.1142 17.7332 -13.6485 13.0706 -46.6585 -4.71343
lowerback 8.00263 -2.40625 -6.9495
upperback 2.20319 -3.71084 3.18228
thorax -1.526 -1.88454 7.58391
lowerneck -10.0184 -0.13829 -10.5939
upperneck 26.2675 -1.87081 13.0519
head 10.1308 -0.634872 6.30744
rclavicle 1.76918e-014 8.74653e-015
rhumerus -37.2332 -20.252 -70.9528
rradius 35.4343
rwrist -17.9956
rhand -14.0932 16.5284
rfingers 7.12502
rthumb 12.0392 -13.1053
lclavicle 1.76918e-014 8.74653e-015
lhumerus -5.04804 19.2251 84.3122
lradius 27.0087
lwrist -9.45015
lhand -3.68417 32.4894
lfingers 7.12502
lthumb 22.0572 61.2515
rfemur -33.7782 1.84266 12.518
rtibia 46.9908
rfoot -11.1279 -0.323319
rtoes 9.70167
lfemur -18.4046 4.41983 -22.7012
ltibia 36.5125
lfoot -26.993 17.1581
ltoes 10.0461
486
root 10.0769 17.7305 -13.6081 12.9736 -46.7628 -4.50203
lowerback 7.78534 -2.27898 -6.94011
upperback 2.35361 -3.52931 2.95257
thorax -1.297 -1.80736 7.30122
lowerneck -9.95357 -0.258908 -10.7057
upperneck 26.0904 -2.14831 13.5736
head 10.0962 -0.720898 6.48533
rclavicle 7.15625e-014 -3.53837e-014
rhumerus -37.2162 -21.7709 -70.5141
rradius 35.3282
rwrist -16.324
rhand -13.2195 16.8497
rfingers 7.12502
rthumb 12.8816 -12.7328
lclavicle 7.15625e-014 -3.53837e-014
lhumerus -4.69401 18.4031 84.2733
lradius 26.9067
lwrist -9.081
lhand -3.92813 32.6586
lfingers 7.12502
lthumb 21.823 61.4481
rfemur -33.8551 1.70704 12.3579
rtibia 47.3383
rfoot -11.1384 -0.240883
rtoes 9.75723
lfemur -18.2428 4.44169 -22.8894
ltibia 36.5107
lfoot -27.2976 17.0571
ltoes 9.42748
487
root 10.0398 17.7267 -13.5657 13.006 -46.7105 -4.40256
lowerback 7.80764 -2.27652 -7.10317
upperback 2.30992 -3.53985 2.96544
thorax -1.34159 -1.80939 7.41217
lowerneck -9.68287 -0.179711 -10.9907
upperneck 25.8629 -2.07488 13.9398
head 9.95121 -0.684114 6.666
rclavicle 1.60022e-014 -1.47101e-014
rhumerus -37.3082 -23.028 -69.5792
rradius 34.8972
rwrist -12.8632
rhand -11.823 17.6075
rfingers 7.12502
rthumb 14.2275 -11.8852
lclavicle 1.60022e-014 -1.47101e-014
lhumerus -4.80205 18.8732 84.3828
lradius 27.049
lwrist -9.47202
lhand -4.54542 32.316
lfingers 7.12502
lthumb 21.2301 61.1734
rfemur -33.9588 1.4691 12.3142
rtibia 47.694
rfoot -11.1239 -0.375121
rtoes 8.85581
lfemur -18.1098 4.44574 -22.9604
ltibia 36.441
lfoot -27.4386 16.9792
ltoes 7.73873
488
root 10.0044 17.7222 -13.5228 13.303 -46.4973 -4.65619
lowerback 7.79118 -2.30461 -6.89728
upperback 2.34812 -3.55951 3.00942
thorax -1.29958 -1.8225 7.33991
lowerneck -9.69019 -0.245571 -11.0454
upperneck 25.6741 -2.19491 14.1677
head 9.90446 -0.719435 6.73958
rclavicle -4.13472e-014 4.73108e-014
rhumerus -37.1259 -23.0826 -69.6515
rradius 35.0926
rwrist -12.8855
rhand -12.4445 17.9965
rfingers 7.12502
rthumb 13.6286 -11.5373
lclavicle -4.13472e-014 4.73108e-014
lhumerus -4.54428 19.28 84.4388
lradius 26.9376
lwrist -9.82903
lhand -3.78998 32.3254
lfingers 7.12502
lthumb 21.9556 61.0994
rfemur -34.044 1.29529 12.5468
rtibia 48.0594
rfoot -11.2192 -0.614275
rtoes 8.67399
lfemur -18.0156 4.44758 -22.7427
ltibia 36.3916
lfoot -27.5047 16.9277
ltoes 7.27729
489
root 9.96968 17.7131 -13.4843 13.5177 -46.3172 -4.71433
lowerback 7.7942 -2.41373 -6.90665
upperback 2.27356 -3.70495 3.07018
thorax -1.34855 -1.89084 7.42282
lowerneck -9.58792 -0.199207 -11.0326
upperneck 25.6266 -2.12155 14.1083
head 9.85537 -0.693501 6.71746
rclavicle 7.81224e-014 -2.74323e-014
rhumerus -37.0298 -22.346 -69.8251
rradius 35.4737
rwrist -13.3464
rhand -10.9083 18.4357
rfingers 7.12502
rthumb 15.1089 -10.9928
lclavicle 7.81224e-014 -2.74323e-014
lhumerus -4.41839 19.7666 84.3076
lradius 26.7949
lwrist -9.87911
lhand -2.94999 32.4946
lfingers 7.12502
lthumb 22.762 61.1718
rfemur -34.2207 1.21983 12.6329
rtibia 48.4188
rfoot -11.3409 -0.814735
rtoes 8.59255
lfemur -18.0212 4.72218 -22.6791
ltibia 36.3723
lfoot -27.4989 16.6879
ltoes 7.43682
490
root 9.93207 17.7078 -13.4503 13.5966 -45.9905 -4.62326
lowerback 7.8984 -2.52146 -7.07302
upperback 2.14881 -3.86663 3.18393
thorax -1.48787 -1.96192 7.66244
lowerneck -9.37546 -0.151774 -11.2366
upperneck 25.6324 -2.03645 14.1122
head 9.80322 -0.680787 6.76127
rclavicle -1.28713e-013 2.18663e-014
rhumerus -36.9998 -21.7785 -69.7327
rradius 35.7131
rwrist -13.5186
rhand -9.35087 19.7718
rfingers 7.12502
rthumb 16.6087 -9.53751
lclavicle -1.28713e-013 2.18663e-014
lhumerus -4.41493 19.9148 84.2485
lradius 26.7082
lwrist -9.71206
lhand -3.30561 32.277
lfingers 7.12502
lthumb 22.4206 60.9958
rfemur -34.3323 0.939247 12.6651
rtibia 48.7816
rfoot -11.5256 -0.973742
rtoes 7.78925
lfemur -17.9878 4.72671 -22.6761
ltibia 36.344
lfoot -27.6051 16.3761
ltoes 7.26016
